<svg xmlns="http://www.w3.org/2000/svg" viewBox="0 0 88.94 82.01"><defs><style>.cls-1{fill:#ffffff;}</style></defs><g id="Layer_2" data-name="Layer 2"><g id="Layer_1-2" data-name="Layer 1"><path class="cls-1" d="M85.09,39.87a13.93,13.93,0,0,0-3.86-1.72L77,37l-3.81-1.06a7.85,7.85,0,0,1-2.84-1.39,2.89,2.89,0,0,1-1.09-2.35,3.41,3.41,0,0,1,1.58-2.87,7.12,7.12,0,0,1,4.2-1.12A6.47,6.47,0,0,1,79.6,29.7a5.42,5.42,0,0,1,1.77,4h7.32A12.08,12.08,0,0,0,84.93,25q-3.62-3.48-9.76-3.48T65.5,24.76a10.31,10.31,0,0,0-3.59,8A10.56,10.56,0,0,0,63,37.68a8.14,8.14,0,0,0,2.79,3.18,14,14,0,0,0,3.81,1.68l4.14,1.16,3.76,1a7.22,7.22,0,0,1,2.8,1.4,3,3,0,0,1,1.08,2.36,3.52,3.52,0,0,1-1.69,3.1A8.64,8.64,0,0,1,75,52.71a7.46,7.46,0,0,1-5.12-1.59,5.63,5.63,0,0,1-1.95-4H60.53a14.27,14.27,0,0,0,.9,4.45,12.44,12.44,0,0,0,2.38,3.89,10.77,10.77,0,0,0,4.35,2.84,18,18,0,0,0,6.4,1Q81,59.36,85,56.27a9.73,9.73,0,0,0,4-8,11.41,11.41,0,0,0-1.06-5.12A8.1,8.1,0,0,0,85.09,39.87Z"/><path class="cls-1" d="M67.16,79.58,37.43,45.74A7.44,7.44,0,0,1,37.67,36L67.16,2.44A7.4,7.4,0,0,1,72.34,0H36.91a7.38,7.38,0,0,0-5.48,2.42l0,0h0l0,0L1.93,36a7.44,7.44,0,0,0-.24,9.72L2,46,31.41,79.57h0v0A7.41,7.41,0,0,0,36.91,82H72.34a7.39,7.39,0,0,1-5.18-2.43Z"/></g></g></svg>