<svg xmlns="http://www.w3.org/2000/svg" viewBox="0 0 317.04 88.5"><defs><style>.cls-1{fill:#2c2a6c;}</style></defs><g id="Layer_2" data-name="Layer 2"><g id="Layer_1-2" data-name="Layer 1"><g id="softbinator_tech"><path class="cls-1" d="M85.08,39.87a13.87,13.87,0,0,0-3.85-1.72L77,37l-3.81-1.07a7.64,7.64,0,0,1-2.83-1.38,2.9,2.9,0,0,1-1.1-2.35,3.39,3.39,0,0,1,1.59-2.87,7.12,7.12,0,0,1,4.2-1.12A6.47,6.47,0,0,1,79.6,29.7a5.4,5.4,0,0,1,1.76,4h7.32A12,12,0,0,0,84.92,25c-2.4-2.32-5.66-3.48-9.75-3.48s-7.29,1.08-9.68,3.23a10.33,10.33,0,0,0-3.58,8A10.56,10.56,0,0,0,63,37.68a8,8,0,0,0,2.79,3.17,13.76,13.76,0,0,0,3.8,1.69l4.14,1.16,3.77,1a7.29,7.29,0,0,1,2.8,1.4,3,3,0,0,1,1.07,2.36,3.47,3.47,0,0,1-1.69,3.09A8.5,8.5,0,0,1,75,52.71a7.45,7.45,0,0,1-5.11-1.59,5.59,5.59,0,0,1-1.95-4H60.53a14.55,14.55,0,0,0,.89,4.45,12.63,12.63,0,0,0,2.38,3.89,10.85,10.85,0,0,0,4.36,2.84,17.93,17.93,0,0,0,6.4,1q6.45,0,10.41-3.1a9.68,9.68,0,0,0,4-8,11.41,11.41,0,0,0-1.07-5.12A8,8,0,0,0,85.08,39.87Z"/><path class="cls-1" d="M105.73,31.21a13.47,13.47,0,0,0-10.19,4.06,13.91,13.91,0,0,0-3.89,10,13.89,13.89,0,0,0,3.89,10,13.47,13.47,0,0,0,10.19,4.07,13.47,13.47,0,0,0,10.19-4.07,13.89,13.89,0,0,0,3.89-10,13.91,13.91,0,0,0-3.89-10A13.47,13.47,0,0,0,105.73,31.21Zm4.89,19.6a6.86,6.86,0,0,1-9.78,0,7.81,7.81,0,0,1-1.92-5.58,7.85,7.85,0,0,1,1.92-5.58,6.86,6.86,0,0,1,9.78,0,7.85,7.85,0,0,1,1.92,5.58A7.81,7.81,0,0,1,110.62,50.81Z"/><path class="cls-1" d="M147.19,25.16h-7.27v6.66h-8.08v-2.3c0-2,.95-3,2.86-3a7.38,7.38,0,0,1,1.13.05V20.35l-2.15-.1A9.2,9.2,0,0,0,127,22.61q-2.43,2.36-2.43,7.06v2.15h-3.84v5.73h3.84V58.64h7.27V37.55h8.08V50.61q0,8.19,8.25,8.19a15.17,15.17,0,0,0,3.43-.31v-6.3l-1.69.26c-1.81,0-2.72-.87-2.72-2.61V37.55h4.46V31.82h-4.46Z"/><path class="cls-1" d="M170.08,31.21a10.86,10.86,0,0,0-4.74,1,8.66,8.66,0,0,0-3.2,2.49V20.25h-7.27V58.64h6.71V55.37q2.65,3.89,8.5,3.89a11.11,11.11,0,0,0,9-4,15.16,15.16,0,0,0,3.32-10,15.16,15.16,0,0,0-3.32-10A11.13,11.13,0,0,0,170.08,31.21Zm3.25,19.5a6.41,6.41,0,0,1-9.58,0,8.19,8.19,0,0,1-1.81-5.48,8.21,8.21,0,0,1,1.81-5.48,6.41,6.41,0,0,1,9.58,0,8.21,8.21,0,0,1,1.81,5.48A8.19,8.19,0,0,1,173.33,50.71Z"/><rect class="cls-1" x="186.15" y="31.82" width="7.27" height="26.82"/><path class="cls-1" d="M189.78,19.59a4.23,4.23,0,0,0-3.17,1.25A4.31,4.31,0,0,0,185.38,24a4.23,4.23,0,0,0,1.23,3.12,4.71,4.71,0,0,0,6.35,0A4.23,4.23,0,0,0,194.19,24,4.31,4.31,0,0,0,193,20.84,4.24,4.24,0,0,0,189.78,19.59Z"/><path class="cls-1" d="M213.54,31.21c-3.93,0-6.59,1.29-8,3.89V31.82h-6.71V58.64h7.27V43.29A6.07,6.07,0,0,1,207.55,39a5.2,5.2,0,0,1,4-1.56q4.56,0,4.56,5.27V58.64h7.27V41.9a11.38,11.38,0,0,0-2.56-7.8Q218.3,31.21,213.54,31.21Z"/><path class="cls-1" d="M251.67,41.19a9.28,9.28,0,0,0-3-7.37q-3-2.61-8.8-2.61c-3.93,0-6.86.88-8.81,2.66a9.85,9.85,0,0,0-3.27,6.6H235c.31-2.18,2-3.28,5-3.28q4.81,0,4.81,4v.25l-7.18,1.11c-3.53.54-6.15,1.51-7.84,2.91A6.89,6.89,0,0,0,227.2,51a7.74,7.74,0,0,0,2.46,6q2.46,2.25,7,2.25,6,0,8.5-3.59a14.8,14.8,0,0,0,.08,1.51q.08.75.12,1.11c0,.23.07.35.11.35h7a12.42,12.42,0,0,1-.77-4.81Zm-6.91,6.5A5.69,5.69,0,0,1,243.07,52a6.67,6.67,0,0,1-4.81,1.63c-2.7,0-4-.93-4-2.79,0-1.63,1.36-2.68,4.1-3.15l6.44-1.07Z"/><path class="cls-1" d="M264.57,25.16H257.3v6.66h-3.63v5.73h3.63V50.61q0,8.19,8.24,8.19a15,15,0,0,0,3.43-.31v-6.3l-1.68.26c-1.81,0-2.72-.87-2.72-2.61V37.55H269V31.82h-4.46Z"/><path class="cls-1" d="M284.08,31.21a13.45,13.45,0,0,0-10.19,4.06,13.91,13.91,0,0,0-3.89,10,13.89,13.89,0,0,0,3.89,10,14.78,14.78,0,0,0,20.37,0,13.85,13.85,0,0,0,3.89-10,13.87,13.87,0,0,0-3.89-10A13.44,13.44,0,0,0,284.08,31.21ZM289,50.81a6.86,6.86,0,0,1-9.78,0,7.81,7.81,0,0,1-1.92-5.58,7.85,7.85,0,0,1,1.92-5.58,6.86,6.86,0,0,1,9.78,0,7.84,7.84,0,0,1,1.91,5.58A7.81,7.81,0,0,1,289,50.81Z"/><path class="cls-1" d="M316.17,31.56c-3.51,0-6,1.25-7.57,3.74V31.82h-6.71V58.64h7.27V45.28c0-2.42.54-4.2,1.61-5.32a6.39,6.39,0,0,1,4.84-1.69,7.48,7.48,0,0,1,1.43.15V31.61Z"/><path class="cls-1" d="M67.15,79.57,37.43,45.74A7.44,7.44,0,0,1,37.67,36L67.15,2.43A7.45,7.45,0,0,1,72.34,0H36.91a7.41,7.41,0,0,0-5.49,2.42v0h0l0,0L1.93,36a7.44,7.44,0,0,0-.24,9.72c.09.09.17.19.26.29L31.41,79.57h0A7.41,7.41,0,0,0,36.91,82H72.34a7.4,7.4,0,0,1-5.19-2.44Z"/><path class="cls-1" d="M102.34,74v2.3H98.22V88.2H95.8V76.3H91.68V74Z"/><path class="cls-1" d="M118.14,86V88.2h-10V74h10v2.24h-7.56v3.64h7.22v2.24h-7.22V86Z"/><path class="cls-1" d="M124.1,81.08a7.32,7.32,0,0,1,2-5.32,6.81,6.81,0,0,1,5.11-2.06,7,7,0,0,1,4.52,1.48,6.3,6.3,0,0,1,2.3,4h-2.58A4,4,0,0,0,134,76.86,4.47,4.47,0,0,0,131.2,76a4.23,4.23,0,0,0-3.33,1.37,6.25,6.25,0,0,0,0,7.39,4.21,4.21,0,0,0,3.33,1.38,4.47,4.47,0,0,0,2.75-.84A4,4,0,0,0,135.44,83H138a6.3,6.3,0,0,1-2.3,4,7,7,0,0,1-4.52,1.48,6.81,6.81,0,0,1-5.11-2.06A7.34,7.34,0,0,1,124.1,81.08Z"/><path class="cls-1" d="M156,74V88.2h-2.42V82.12h-6.74V88.2h-2.42V74h2.42v5.88h6.74V74Z"/><path class="cls-1" d="M165.78,78V88.2H163.4V74h2.42l6.94,10.27V74h2.38V88.2h-2.48Z"/><path class="cls-1" d="M183.78,86.39a7.82,7.82,0,0,1,0-10.58,7.66,7.66,0,0,1,10.56,0,7.82,7.82,0,0,1,0,10.58,7.66,7.66,0,0,1-10.56,0Zm1.84-9a5.72,5.72,0,0,0,0,7.36,4.93,4.93,0,0,0,6.88,0,5.72,5.72,0,0,0,0-7.36,4.93,4.93,0,0,0-6.88,0Z"/><path class="cls-1" d="M212,86V88.2h-9V74h2.42V86Z"/><path class="cls-1" d="M218.5,86.39a7.82,7.82,0,0,1,0-10.58,7.66,7.66,0,0,1,10.56,0,7.82,7.82,0,0,1,0,10.58,7.66,7.66,0,0,1-10.56,0Zm1.84-9a5.72,5.72,0,0,0,0,7.36,4.93,4.93,0,0,0,6.88,0,5.72,5.72,0,0,0,0-7.36,4.93,4.93,0,0,0-6.88,0Z"/><path class="cls-1" d="M250.82,80.44V88.2h-2.18v-2a4.66,4.66,0,0,1-1.91,1.67,6.29,6.29,0,0,1-2.85.61,6.6,6.6,0,0,1-5-2,7.4,7.4,0,0,1-2-5.31,7.32,7.32,0,0,1,2-5.32A6.81,6.81,0,0,1,244,73.7a7.1,7.1,0,0,1,4.43,1.4,6.2,6.2,0,0,1,2.33,3.82h-2.62a3.68,3.68,0,0,0-1.49-2.14A4.54,4.54,0,0,0,244,76a4.23,4.23,0,0,0-3.33,1.37,5.35,5.35,0,0,0-1.21,3.69,5.54,5.54,0,0,0,1.23,3.75A4.15,4.15,0,0,0,244,86.26a4.76,4.76,0,0,0,3-1,3.87,3.87,0,0,0,1.42-2.67h-3.8v-2.2Z"/><path class="cls-1" d="M260.32,74V88.2H257.9V74Z"/><path class="cls-1" d="M277.66,86V88.2h-10V74h10v2.24H270.1v3.64h7.22v2.24H270.1V86Z"/><path class="cls-1" d="M289,86.3a4.2,4.2,0,0,0,2.26-.51,1.65,1.65,0,0,0,.8-1.47,1.58,1.58,0,0,0-.44-1.14,2.56,2.56,0,0,0-1.15-.63l-1.54-.41-1.67-.45a6.37,6.37,0,0,1-1.56-.63,3,3,0,0,1-1.14-1.2,4.06,4.06,0,0,1-.44-2,3.81,3.81,0,0,1,1.39-3,5.42,5.42,0,0,1,3.69-1.22A5.21,5.21,0,0,1,292.93,75a4.65,4.65,0,0,1,1.39,3.39h-2.38a2.49,2.49,0,0,0-.74-1.81,2.8,2.8,0,0,0-2-.71,3.32,3.32,0,0,0-2,.51,1.65,1.65,0,0,0-.71,1.44,1.34,1.34,0,0,0,.44,1,2.78,2.78,0,0,0,1.16.6l1.55.42,1.7.45a6.07,6.07,0,0,1,1.56.67A3.1,3.1,0,0,1,294,82.24a4.14,4.14,0,0,1,.44,2,3.68,3.68,0,0,1-1.54,3.1,6.67,6.67,0,0,1-4.1,1.16,5.2,5.2,0,0,1-3.94-1.38,4.88,4.88,0,0,1-1.38-3.34h2.4a2.56,2.56,0,0,0,.86,1.86A3.23,3.23,0,0,0,289,86.3Z"/></g></g></g></svg>